<?xml version="1.0" standalone="no"?>
<svg xmlns:xlink="http://www.w3.org/1999/xlink" id="wave" style="transform:rotate(0deg); transition: 0.3s" viewBox="0 0 1440 490" version="1.1" xmlns="http://www.w3.org/2000/svg"><defs><linearGradient id="sw-gradient-0" x1="0" x2="0" y1="1" y2="0"><stop stop-color="rgba(122, 30, 20, 1)" offset="0%"/><stop stop-color="rgba(247, 117, 64, 1)" offset="100%"/></linearGradient></defs><path style="transform:translate(0, 0px); opacity:1" fill="url(#sw-gradient-0)" d="M0,294L120,253.2C240,212,480,131,720,155.2C960,180,1200,310,1440,326.7C1680,343,1920,245,2160,245C2400,245,2640,343,2880,383.8C3120,425,3360,408,3600,367.5C3840,327,4080,261,4320,204.2C4560,147,4800,98,5040,122.5C5280,147,5520,245,5760,261.3C6000,278,6240,212,6480,196C6720,180,6960,212,7200,253.2C7440,294,7680,343,7920,343C8160,343,8400,294,8640,294C8880,294,9120,343,9360,334.8C9600,327,9840,261,10080,269.5C10320,278,10560,359,10800,343C11040,327,11280,212,11520,163.3C11760,114,12000,131,12240,163.3C12480,196,12720,245,12960,220.5C13200,196,13440,98,13680,89.8C13920,82,14160,163,14400,187.8C14640,212,14880,180,15120,212.3C15360,245,15600,343,15840,318.5C16080,294,16320,147,16560,73.5C16800,0,17040,0,17160,0L17280,0L17280,490L17160,490C17040,490,16800,490,16560,490C16320,490,16080,490,15840,490C15600,490,15360,490,15120,490C14880,490,14640,490,14400,490C14160,490,13920,490,13680,490C13440,490,13200,490,12960,490C12720,490,12480,490,12240,490C12000,490,11760,490,11520,490C11280,490,11040,490,10800,490C10560,490,10320,490,10080,490C9840,490,9600,490,9360,490C9120,490,8880,490,8640,490C8400,490,8160,490,7920,490C7680,490,7440,490,7200,490C6960,490,6720,490,6480,490C6240,490,6000,490,5760,490C5520,490,5280,490,5040,490C4800,490,4560,490,4320,490C4080,490,3840,490,3600,490C3360,490,3120,490,2880,490C2640,490,2400,490,2160,490C1920,490,1680,490,1440,490C1200,490,960,490,720,490C480,490,240,490,120,490L0,490Z"/></svg>