<?xml version="1.0" standalone="no"?>
<svg xmlns:xlink="http://www.w3.org/1999/xlink" id="wave" style="transform:rotate(0deg); transition: 0.3s" viewBox="0 0 1440 490" version="1.1" xmlns="http://www.w3.org/2000/svg"><defs><linearGradient id="sw-gradient-0" x1="0" x2="0" y1="1" y2="0"><stop stop-color="rgba(243, 106, 62, 1)" offset="0%"/><stop stop-color="rgba(255, 179, 11, 1)" offset="100%"/></linearGradient></defs><path style="transform:translate(0, 0px); opacity:1" fill="url(#sw-gradient-0)" d="M0,147L21.8,187.8C43.6,229,87,310,131,310.3C174.5,310,218,229,262,212.3C305.5,196,349,245,393,261.3C436.4,278,480,261,524,220.5C567.3,180,611,114,655,106.2C698.2,98,742,147,785,204.2C829.1,261,873,327,916,326.7C960,327,1004,261,1047,212.3C1090.9,163,1135,131,1178,122.5C1221.8,114,1265,131,1309,130.7C1352.7,131,1396,114,1440,89.8C1483.6,65,1527,33,1571,16.3C1614.5,0,1658,0,1702,57.2C1745.5,114,1789,229,1833,277.7C1876.4,327,1920,310,1964,285.8C2007.3,261,2051,229,2095,204.2C2138.2,180,2182,163,2225,163.3C2269.1,163,2313,180,2356,196C2400,212,2444,229,2487,253.2C2530.9,278,2575,310,2618,302.2C2661.8,294,2705,245,2749,187.8C2792.7,131,2836,65,2880,40.8C2923.6,16,2967,33,3011,32.7C3054.5,33,3098,16,3120,8.2L3141.8,0L3141.8,490L3120,490C3098.2,490,3055,490,3011,490C2967.3,490,2924,490,2880,490C2836.4,490,2793,490,2749,490C2705.5,490,2662,490,2618,490C2574.5,490,2531,490,2487,490C2443.6,490,2400,490,2356,490C2312.7,490,2269,490,2225,490C2181.8,490,2138,490,2095,490C2050.9,490,2007,490,1964,490C1920,490,1876,490,1833,490C1789.1,490,1745,490,1702,490C1658.2,490,1615,490,1571,490C1527.3,490,1484,490,1440,490C1396.4,490,1353,490,1309,490C1265.5,490,1222,490,1178,490C1134.5,490,1091,490,1047,490C1003.6,490,960,490,916,490C872.7,490,829,490,785,490C741.8,490,698,490,655,490C610.9,490,567,490,524,490C480,490,436,490,393,490C349.1,490,305,490,262,490C218.2,490,175,490,131,490C87.3,490,44,490,22,490L0,490Z"/></svg>