<?xml version="1.0" standalone="no"?>
<svg xmlns:xlink="http://www.w3.org/1999/xlink" id="wave" style="transform:rotate(180deg); transition: 0.3s" viewBox="0 0 1440 490" version="1.1" xmlns="http://www.w3.org/2000/svg"><defs><linearGradient id="sw-gradient-0" x1="0" x2="0" y1="1" y2="0"><stop stop-color="rgba(17, 18, 82, 1)" offset="0%"/><stop stop-color="rgba(43, 147, 255, 1)" offset="100%"/></linearGradient></defs><path style="transform:translate(0, 0px); opacity:1" fill="url(#sw-gradient-0)" d="M0,0L120,16.3C240,33,480,65,720,114.3C960,163,1200,229,1440,253.2C1680,278,1920,261,2160,261.3C2400,261,2640,278,2880,253.2C3120,229,3360,163,3600,130.7C3840,98,4080,98,4320,138.8C4560,180,4800,261,5040,294C5280,327,5520,310,5760,294C6000,278,6240,261,6480,245C6720,229,6960,212,7200,187.8C7440,163,7680,131,7920,98C8160,65,8400,33,8640,40.8C8880,49,9120,98,9360,163.3C9600,229,9840,310,10080,343C10320,376,10560,359,10800,294C11040,229,11280,114,11520,89.8C11760,65,12000,131,12240,196C12480,261,12720,327,12960,334.8C13200,343,13440,294,13680,302.2C13920,310,14160,376,14400,367.5C14640,359,14880,278,15120,277.7C15360,278,15600,359,15840,334.8C16080,310,16320,180,16560,147C16800,114,17040,180,17160,212.3L17280,245L17280,490L17160,490C17040,490,16800,490,16560,490C16320,490,16080,490,15840,490C15600,490,15360,490,15120,490C14880,490,14640,490,14400,490C14160,490,13920,490,13680,490C13440,490,13200,490,12960,490C12720,490,12480,490,12240,490C12000,490,11760,490,11520,490C11280,490,11040,490,10800,490C10560,490,10320,490,10080,490C9840,490,9600,490,9360,490C9120,490,8880,490,8640,490C8400,490,8160,490,7920,490C7680,490,7440,490,7200,490C6960,490,6720,490,6480,490C6240,490,6000,490,5760,490C5520,490,5280,490,5040,490C4800,490,4560,490,4320,490C4080,490,3840,490,3600,490C3360,490,3120,490,2880,490C2640,490,2400,490,2160,490C1920,490,1680,490,1440,490C1200,490,960,490,720,490C480,490,240,490,120,490L0,490Z"/></svg>