<?xml version="1.0" standalone="no"?>
<svg xmlns:xlink="http://www.w3.org/1999/xlink" id="wave" style="transform:rotate(0deg); transition: 0.3s" viewBox="0 0 1440 490" version="1.1" xmlns="http://www.w3.org/2000/svg"><defs><linearGradient id="sw-gradient-0" x1="0" x2="0" y1="1" y2="0"><stop stop-color="rgba(243, 106, 62, 1)" offset="0%"/><stop stop-color="rgba(255, 179, 11, 1)" offset="100%"/></linearGradient></defs><path style="transform:translate(0, 0px); opacity:1" fill="url(#sw-gradient-0)" d="M0,343L16,343C32,343,64,343,96,334.8C128,327,160,310,192,269.5C224,229,256,163,288,155.2C320,147,352,196,384,253.2C416,310,448,376,480,367.5C512,359,544,278,576,269.5C608,261,640,327,672,343C704,359,736,327,768,326.7C800,327,832,359,864,318.5C896,278,928,163,960,130.7C992,98,1024,147,1056,196C1088,245,1120,294,1152,269.5C1184,245,1216,147,1248,122.5C1280,98,1312,147,1344,155.2C1376,163,1408,131,1440,122.5C1472,114,1504,131,1536,179.7C1568,229,1600,310,1632,302.2C1664,294,1696,196,1728,163.3C1760,131,1792,163,1824,155.2C1856,147,1888,98,1920,98C1952,98,1984,147,2016,187.8C2048,229,2080,261,2112,261.3C2144,261,2176,229,2208,196C2240,163,2272,131,2288,114.3L2304,98L2304,490L2288,490C2272,490,2240,490,2208,490C2176,490,2144,490,2112,490C2080,490,2048,490,2016,490C1984,490,1952,490,1920,490C1888,490,1856,490,1824,490C1792,490,1760,490,1728,490C1696,490,1664,490,1632,490C1600,490,1568,490,1536,490C1504,490,1472,490,1440,490C1408,490,1376,490,1344,490C1312,490,1280,490,1248,490C1216,490,1184,490,1152,490C1120,490,1088,490,1056,490C1024,490,992,490,960,490C928,490,896,490,864,490C832,490,800,490,768,490C736,490,704,490,672,490C640,490,608,490,576,490C544,490,512,490,480,490C448,490,416,490,384,490C352,490,320,490,288,490C256,490,224,490,192,490C160,490,128,490,96,490C64,490,32,490,16,490L0,490Z"/></svg>